<svg id="Layer_1" data-name="Layer 1" xmlns="http://www.w3.org/2000/svg" viewBox="0 0 80 80"><defs><style>.cls-1,.cls-2,.cls-3{fill:none;stroke:#000;stroke-miterlimit:10;}.cls-1{stroke-width:0.89px;}.cls-2{stroke-width:0.93px;}.cls-3{stroke-width:0.98px;}</style></defs><title>icons</title><rect class="cls-1" x="20.49" y="17.45" width="39.03" height="13.29"/><rect class="cls-1" x="31.58" y="21.68" width="17.13" height="5.12"/><polyline class="cls-2" points="23.51 17.45 23.51 5.76 58.16 5.76 58.16 14.26 33.55 14.26 33.55 17.45"/><polyline class="cls-3" points="58.16 9.34 42.63 9.34 42.63 14.26"/><line class="cls-1" x1="22.72" y1="30.74" x2="22.72" y2="34.28"/><line class="cls-1" x1="57.18" y1="30.74" x2="57.18" y2="34.28"/><rect class="cls-1" x="20.49" y="34.58" width="39.03" height="13.29"/><rect class="cls-1" x="31.58" y="38.81" width="17.13" height="5.12"/><line class="cls-1" x1="22.72" y1="47.87" x2="22.72" y2="51.41"/><line class="cls-1" x1="57.18" y1="47.87" x2="57.18" y2="51.41"/><rect class="cls-1" x="20.49" y="51.71" width="39.03" height="13.29"/><rect class="cls-1" x="31.58" y="55.94" width="17.13" height="5.12"/><polyline class="cls-1" points="22.72 65 22.72 68.54 28.06 68.54 57.18 68.54 57.18 65"/><rect class="cls-1" x="50.38" y="70.61" width="3.64" height="3.64"/><rect class="cls-1" x="26.24" y="70.61" width="3.64" height="3.64"/><line class="cls-1" x1="28.06" y1="70.22" x2="28.06" y2="68.54"/><line class="cls-1" x1="52.21" y1="70.22" x2="52.21" y2="68.54"/></svg>