<?xml version="1.0" encoding="iso-8859-1"?>
<!-- Generator: Adobe Illustrator 19.0.0, SVG Export Plug-In . SVG Version: 6.00 Build 0)  -->
<svg version="1.1" id="Capa_1" xmlns="http://www.w3.org/2000/svg" xmlns:xlink="http://www.w3.org/1999/xlink" x="0px" y="0px"
	 viewBox="0 0 512.001 512.001" style="enable-background:new 0 0 512.001 512.001;" xml:space="preserve">
<g>
	<g>
		<g>
			<path d="M310.164,452c-5.511,0-10,4.489-10,10c0,5.51,4.489,10,10,10c5.52,0,10-4.49,10-10
				C320.164,456.489,315.684,452,310.164,452z"/>
			<path d="M220.164,78.779h-92c-5.511,0-10,4.48-10,10c0,5.511,4.489,10,10,10h92c5.52,0,10-4.489,10-10
				C230.164,83.26,225.683,78.779,220.164,78.779z"/>
			<path d="M502,392.001h-31.834V139.282c9.673-1.698,18.548-6.323,25.564-13.464c9.336-9.502,14.584-22.501,14.429-35.707
				c0-0.038,0.006-80.111,0.006-80.111c0-5.522-4.478-10-10-10H10C4.479,0.001,0,4.479,0,10.001v80c0,5.522,4.478,10,10,10h28.166
				v292H10c-5.522,0-10,4.478-10,10c0,5.522,4.478,10,10,10h68.166v50c0,27.57,22.43,50,50,50h332c5.522,0,10-4.478,10-10
				c0-5.522-4.478-10-10-10c-16.542,0-30-13.458-30-30v-50H502c5.522,0,10-4.478,10-10C512,396.479,507.523,392.001,502,392.001z
				 M20,80.001v-60h470.166v29.333c-8.141-6.069-17.981-9.353-28.363-9.353c-0.46,0-413.637,0.02-413.637,0.02
				c-5.522,0-10,4.478-10,10s4.478,10,10,10c13.036,0,24.152,8.361,28.28,20H20z M78.167,392.001h-20v-292h20V392.001z
				 M128.167,492.001c-13.037,0-24.152-8.361-28.28-20.001h170.277c5.51,0,10-4.49,10-10c0-5.511-4.49-10-10-10H98.167V90.001
				c0-11.246-3.733-21.638-10.023-30h211.675c-0.834,1.181-1.638,2.391-2.374,3.665c-9.236,15.996-9.236,36.668-0.001,52.665
				c8.684,15.042,24.394,23.669,43.102,23.67c0,0,36.627,0.006,69.621,0.011v321.989c0,11.246,3.733,21.638,10.023,30H128.167z
				 M450.167,392.001h-20V140.016c7.726,0.001,14.627,0.002,20,0.003V392.001z M340.546,120.001
				c-14.786-0.001-22.182-7.434-25.781-13.669c-5.64-9.77-5.64-22.896,0.001-32.666c3.6-6.234,10.994-13.666,25.78-13.665
				c0,0,120.942-0.02,121.258-0.02c9.573,0,15.975,4.47,19.659,8.219c5.585,5.685,8.838,13.77,8.7,21.627
				c-0.003,0.117-0.003,0.234,0,0.352c0.138,7.856-3.113,15.939-8.697,21.622c-3.685,3.75-10.087,8.22-19.662,8.22
				C461.489,120.021,340.546,120.001,340.546,120.001z"/>
			<path d="M380.542,80c-5.521,0-10,4.479-10,10c0,5.52,4.479,10,10,10c5.52,0,10-4.48,10-10C390.542,84.479,386.063,80,380.542,80z
				"/>
			<path d="M340.542,80c-5.521,0-10,4.48-10,10c0,5.52,4.479,10,10,10c5.52,0,10-4.48,10-10C350.542,84.479,346.063,80,340.542,80z"
				/>
			<path d="M460.546,80.001h-40c-5.522,0-10,4.478-10,10c0,5.522,4.477,10,10,10h40c5.522,0,10-4.478,10-10
				C470.546,84.479,466.068,80.001,460.546,80.001z"/>
		</g>
	</g>
</g>
<g>
</g>
<g>
</g>
<g>
</g>
<g>
</g>
<g>
</g>
<g>
</g>
<g>
</g>
<g>
</g>
<g>
</g>
<g>
</g>
<g>
</g>
<g>
</g>
<g>
</g>
<g>
</g>
<g>
</g>
</svg>
