<?xml version="1.0"?>
<svg xmlns="http://www.w3.org/2000/svg" viewBox="0 0 128 128" width="512" height="512"><title>PRINTER</title><g id="Layer_2" data-name="Layer 2"><path d="M126.25,31.917H107.375V24.006a1.75,1.75,0,0,0-.771-1.45L97,16.07V1.75A1.75,1.75,0,0,0,95.246,0H32.754A1.75,1.75,0,0,0,31,1.75V16.07L21.4,22.556a1.749,1.749,0,0,0-.771,1.45v7.911H1.75A1.75,1.75,0,0,0,0,33.667V94.333a1.75,1.75,0,0,0,1.75,1.75H31V126.25a1.75,1.75,0,0,0,1.75,1.75H95.246A1.75,1.75,0,0,0,97,126.25V96.083H126.25a1.75,1.75,0,0,0,1.75-1.75V33.667A1.75,1.75,0,0,0,126.25,31.917Zm-22.375-6.981v6.981H97V20.293ZM34.5,3.5H93.5V31.917H87V11.75A1.75,1.75,0,0,0,85.246,10H42.754A1.75,1.75,0,0,0,41,11.75V31.917H34.5V3.5ZM83.5,31.917H44.5V13.5H83.5ZM24.125,24.936,31,20.293V31.917H24.125Zm-1.75,10.481H124.5V71.71H3.5V35.417ZM124.5,78.542H3.5V75.21h121Zm-80,3.5H83.5V114.5H44.5ZM3.5,92.583V82.042H31V92.583Zm90,31.917H34.5V82.042H41V116.25a1.75,1.75,0,0,0,1.75,1.75H85.246A1.75,1.75,0,0,0,87,116.25V82.042h6.5V124.5ZM97,92.583V82.042h27.5V92.583Z"/><path d="M103.074,65.2h10a4.916,4.916,0,0,0,0-9.832h-10a4.916,4.916,0,1,0,0,9.832Zm0-6.332h10a1.416,1.416,0,0,1,0,2.832h-10a1.416,1.416,0,1,1,0-2.832Z"/><path d="M76.574,65.2h10a4.916,4.916,0,0,0,0-9.832h-10a4.916,4.916,0,0,0,0,9.832Zm0-6.332h10a1.416,1.416,0,0,1,0,2.832h-10a1.416,1.416,0,0,1,0-2.832Z"/></g></svg>
