<svg id="Layer_1" data-name="Layer 1" xmlns="http://www.w3.org/2000/svg" viewBox="0 0 19.29 14.32"><defs><style>.cls-2{fill:#43484f}</style></defs><rect x=".33" y="2.19" width="18.64" height="8.09" rx="2.46" fill="#90888a"/><path class="cls-2" d="M22.92 19.51H9.21a2.79 2.79 0 01-2.79-2.79v-3.17a2.79 2.79 0 012.79-2.78h13.71a2.79 2.79 0 012.79 2.78v3.17a2.79 2.79 0 01-2.79 2.79zM9.21 11.42a2.14 2.14 0 00-2.14 2.13v3.17a2.14 2.14 0 002.14 2.14h13.71a2.13 2.13 0 002.13-2.14v-3.17a2.13 2.13 0 00-2.13-2.13z" transform="translate(-6.42 -8.9)"/><path fill="#fff" d="M14.38 11.61V6.24H4.9V14H12v-2.39h2.38z"/><path class="cls-2" d="M18.42 23.22h-7.1a.32.32 0 01-.32-.32v-7.76a.32.32 0 01.32-.33h9.48a.33.33 0 01.33.33v5.37a.33.33 0 01-.33.33h-2.06v2.06a.32.32 0 01-.32.32zm-6.77-.65h6.44v-2.06a.32.32 0 01.33-.32h2.06v-4.73h-8.83z" transform="translate(-6.42 -8.9)"/><path class="cls-2" d="M18.42 23.22a.3.3 0 01-.13 0 .33.33 0 01-.2-.3v-2.41a.32.32 0 01.33-.32h2.38a.33.33 0 01.3.2.31.31 0 01-.07.35l-2.38 2.39a.33.33 0 01-.23.09zm.32-2.38v1.27L20 20.84zm3.89-5.38H9.5a.32.32 0 01-.33-.32.33.33 0 01.33-.33h13.13a.32.32 0 01.32.33.32.32 0 01-.32.32zm-1.83-4.04h-9.48a.32.32 0 01-.32-.33V9.23a.32.32 0 01.32-.33h9.48a.33.33 0 01.33.33v1.86a.33.33 0 01-.33.33zm-9.15-.65h8.83V9.55h-8.83zm11.29 1.87h-1.66a.32.32 0 01-.33-.32.33.33 0 01.33-.33h1.66a.33.33 0 01.33.33.32.32 0 01-.33.32zm0 1.03h-1.66a.33.33 0 01-.33-.33.32.32 0 01.33-.32h1.66a.32.32 0 01.33.32.33.33 0 01-.33.33z" transform="translate(-6.42 -8.9)"/><path fill="#eb008b" d="M4.16 2.19h1.05v1.9H4.16z"/><path class="cls-2" d="M11.63 13.32h-1.05a.32.32 0 01-.33-.32v-1.91a.32.32 0 01.33-.32h1.05a.32.32 0 01.33.32V13a.32.32 0 01-.33.32zm-.73-.65h.4v-1.25h-.4z" transform="translate(-6.42 -8.9)"/></svg>