<svg viewBox="0 -34 512.00102 512" xmlns="http://www.w3.org/2000/svg"><path d="m511.445312 299.054688c0-.082032-.011718-.160157-.015624-.242188.003906-.089844.011718-.171875.015624-.261719l.355469-166.902343c.011719-4.144532-3.339843-7.507813-7.480469-7.519532-.007812 0-.011718 0-.019531 0-4.132812 0-7.488281 3.34375-7.5 7.480469l-.023437 10.390625-1.207032.707031c-.652343.378907-1.457031.378907-2.097656.007813l-5.476562-3.207032c-4.644532-2.714843-10.160156-3.09375-15.132813-1.035156-4.972656 2.058594-8.609375 6.226563-9.980469 11.4375l-1.609374 6.128906c-.1875.71875-.75 1.28125-1.46875 1.46875l-6.128907 1.605469c-5.207031 1.359375-9.375 4.988281-11.4375 9.960938-2.066406 4.976562-1.6875 10.496093 1.03125 15.140625l3.199219 5.476562c.371094.636719.371094 1.429688-.003906 2.070313l-3.191406 5.464843c-2.722657 4.652344-3.097657 10.171876-1.035157 15.148438 2.0625 4.972656 6.230469 8.601562 11.429688 9.957031l6.132812 1.605469c.722657.191406 1.285157.753906 1.472657 1.46875l1.609374 6.136719c1.371094 5.203125 5.007813 9.371093 9.980469 11.429687 2.121094.878906 4.335938 1.3125 6.542969 1.3125 2.972656 0 5.925781-.789062 8.59375-2.347656l5.46875-3.199219c.644531-.378906 1.449219-.375 2.085938-.003906l1.015624.59375-.113281 51.707031h-60.953125c.027344-.066406.058594-.132812.089844-.199218 2.398438-5.785157 1.960938-12.207032-1.199219-17.617188-.003906 0-.003906-.003906-.003906-.003906l-4.136719-7.058594c-.882812-1.507812-.882812-3.375 0-4.882812l4.140625-7.0625c3.160157-5.410157 3.597657-11.832032 1.199219-17.617188-2.402344-5.785156-7.253906-10.011719-13.316406-11.597656l-7.910156-2.070313c-1.695313-.441406-3.023438-1.765625-3.464844-3.460937l-2.078125-7.90625c-1.582031-6.058594-5.804688-10.90625-11.589844-13.304688-5.792969-2.402344-12.21875-1.964844-17.625 1.199219l-7.085937 4.140625c-1.503907.878906-3.371094.878906-4.886719-.007812l-7.0625-4.125c-4.285157-2.511719-9.292969-3.304688-14.078125-2.300782v-26.730468c0-15.34375-12.484375-27.828126-27.832032-27.828126h-38.917968c-4.144532 0-7.5 3.359376-7.5 7.5 0 4.144532 3.355468 7.5 7.5 7.5h38.917968c7.074219 0 12.832032 5.753907 12.832032 12.828126v121.164062h-289.117188c-23.367187 0-42.378906 19-42.378906 42.355469v71.980469c0 7.378906 6.003906 13.382812 13.386719 13.382812h19.777343v8.761719c0 8.234375 6.699219 14.933593 14.933594 14.933593h88.777344c8.234375 0 14.9375-6.699218 14.9375-14.933593v-8.761719h204.121094v8.761719c0 8.234375 6.699218 14.933593 14.933594 14.933593h88.777343c8.234375 0 14.933594-6.699218 14.933594-14.933593v-8.761719h24.035156c7.382813 0 13.386719-6.003906 13.386719-13.421875zm-25.546874-73.265626-5.472657 3.203126c-.726562.425781-1.394531.300781-1.824219.125-.355468-.148438-.984374-.523438-1.210937-1.386719l-1.605469-6.128907c-1.5625-5.949218-6.226562-10.609374-12.179687-12.171874l-6.144531-1.609376c-.808594-.210937-1.191407-.765624-1.367188-1.191406-.148438-.351562-.324219-1.058594.125-1.828125l3.195312-5.46875c3.105469-5.308593 3.105469-11.90625.003907-17.214843l-3.199219-5.472657c-.449219-.769531-.273438-1.472656-.125-1.824219.175781-.429687.558594-.980468 1.375-1.195312l6.136719-1.605469c5.949219-1.5625 10.617187-6.222656 12.175781-12.171875l1.609375-6.128906c.226563-.863281.855469-1.238281 1.210937-1.386719.214844-.089843.488282-.164062.800782-.164062.308594 0 .65625.074219 1.019531.285156l5.480469 3.207031c3.3125 1.9375 7.136718 2.667969 10.835937 2.179688l-.136719 65.75c-3.65625-.449219-7.425781.285156-10.703124 2.199218zm-136.964844-13.777343c.789062-.28125 2.367187-.601563 4.066406.394531l7.058594 4.125c6.1875 3.628906 13.871094 3.628906 20.042968.003906l7.078126-4.132812c1.8125-1.058594 3.476562-.636719 4.308593-.292969.828125.34375 2.296875 1.21875 2.824219 3.25l2.082031 7.90625c1.804688 6.921875 7.234375 12.351563 14.171875 14.171875l7.917969 2.070312c2.027344.53125 2.90625 2 3.253906 2.832032.34375.828125.761719 2.492187-.292969 4.292968l-4.132812 7.058594c-3.625 6.183594-3.625 13.863282 0 20.046875l4.136719 7.058594c1.050781 1.804687.632812 3.464844.289062 4.292969-.34375.832031-1.226562 2.300781-3.253906 2.832031l-7.914063 2.070313c-1.03125.269531-2.03125.617187-2.996093 1.042968h-4.828125c.914062-3.890625 1.382812-7.894531 1.382812-11.980468 0-28.875-23.507812-52.367188-52.398437-52.367188-1.753907 0-3.5.09375-5.234375.265625v-13.039063c.574218-.871093 1.421875-1.542968 2.4375-1.902343zm-2.4375 30.039062c1.726562-.242187 3.472656-.363281 5.234375-.363281 20.621093 0 37.398437 16.765625 37.398437 37.367188 0 4.132812-.65625 8.144531-1.960937 11.980468h-40.671875zm-209.621094 185.960938-88.710938.0625v-8.761719h12.003907c4.140625 0 7.5-3.355469 7.5-7.5 0-4.140625-3.359375-7.496094-7.5-7.496094h-45.167969v-70.367187c0-15.085938 12.28125-27.355469 27.378906-27.355469h169.527344v97.722656h-120.738281c-4.140625 0-7.5 3.355469-7.5 7.496094 0 4.144531 3.359375 7.5 7.5 7.5h45.671875zm322.773438 0-88.714844.0625v-8.761719h88.679687zm7.433593-23.695313h-240.175781v-97.722656h269.578125l.507813 97.722656zm0 0"/><path d="m162.785156 171.484375c0-4.269531-3.460937-7.726563-7.730468-7.726563-4.273438 0-7.734376 3.457032-7.734376 7.726563 0 4.265625 3.460938 7.726563 7.734376 7.726563 4.269531 0 7.730468-3.460938 7.730468-7.726563zm0 0"/><path d="m248.789062 92.992188c0-4.269532-3.464843-7.726563-7.734374-7.726563-4.269532 0-7.730469 3.457031-7.730469 7.726563 0 4.265624 3.460937 7.726562 7.730469 7.726562 4.269531 0 7.734374-3.460938 7.734374-7.726562zm0 0"/><path d="m38.984375 98.773438h6.253906v77.042968c0 20.109375 16.367188 36.46875 36.488281 36.46875h1.304688v13.253906c0 7.71875 6.28125 14 14 14h24.148438v35.648438c0 4.140625 3.359374 7.5 7.5 7.5 4.140624 0 7.5-3.359375 7.5-7.5v-35.679688c7.441406-.316406 13.402343-6.453124 13.402343-13.96875v-13.414062c16.21875-1.1875 31.136719-9.609375 40.476563-23.066406l10.1875-14.664063c7.296875-10.515625 19.300781-16.792969 32.109375-16.792969h16.433593c4.140626 0 7.496094-3.359374 7.496094-7.5 0-4.140624-3.355468-7.5-7.496094-7.5h-16.433593c-17.722657 0-34.332031 8.6875-44.429688 23.238282l-10.1875 14.664062c-7.296875 10.507813-19.296875 16.78125-32.109375 16.78125h-10.007812v-156.859375h323.734375c10.050781 0 19.496093 3.917969 26.59375 11.027344 7.089843 7.105469 10.980469 16.539063 10.960937 26.570313l-.042968 20.667968c-.011719 4.144532 3.339843 7.507813 7.484374 7.515625h.015626c4.132812 0 7.492187-3.347656 7.5-7.480469l.042968-20.671874c.03125-14.042969-5.417968-27.253907-15.339844-37.199219-9.933593-9.949219-23.148437-15.433594-37.210937-15.433594h-33.816406v-13.816406c0-4.144531-3.359375-7.5-7.5-7.5s-7.5 3.355469-7.5 7.5v13.820312h-178.460938c-6.902343-15.210937-22.359375-25.425781-39.371093-25.425781-17.015626 0-32.46875 10.214844-39.363282 25.425781h-25.171875c-.019531 0-.039062-.003906-.054687-.003906-.019532 0-.039063.003906-.058594.003906h-46.335938c-20.121093 0-36.488281 16.359375-36.488281 36.46875v21.878907h-6.253906c-4.144531 0-7.5 3.359374-7.5 7.5 0 4.140624 3.355469 7.5 7.5 7.5zm59.046875 114.355468h36.550781v11.410156h-36.550781zm94.679688-198.128906c8.613281 0 16.613281 4.003906 21.875 10.425781h-43.742188c5.253906-6.421875 13.257812-10.425781 21.867188-10.425781zm-132.472657 46.894531c0-11.835937 9.640625-21.46875 21.488281-21.46875h38.894532v156.863281h-38.894532c-11.847656 0-21.488281-9.632812-21.488281-21.472656zm0 0"/><path d="m443.125 55.578125h-215.148438c-11.703124 0-21.226562 9.523437-21.226562 21.226563v32.371093c0 11.707031 9.523438 21.230469 21.226562 21.230469h232.351563c11.707031 0 21.230469-9.523438 21.230469-21.230469v-32.371093c0-11.703126-9.523438-21.226563-21.230469-21.226563zm-7.496094 15v14.914063h-15.484375v-14.914063zm-30.484375 44.828125h-100.917969v-44.828125h100.917969zm-183.394531-6.230469v-32.371093c0-3.433594 2.792969-6.226563 6.226562-6.226563h61.25v44.828125h-61.25c-3.433593 0-6.226562-2.796875-6.226562-6.230469zm198.394531 6.230469v-14.914062h15.484375v14.914062zm40.183594 0h-9.703125v-14.914062h15.929688v8.683593c0 3.433594-2.792969 6.230469-6.226563 6.230469zm6.226563-38.601562v8.6875h-15.929688v-14.914063h9.703125c3.433594 0 6.226563 2.792969 6.226563 6.226563zm0 0"/><path d="m490.199219 190.722656c0-4.265625-3.464844-7.726562-7.734375-7.726562-4.269532 0-7.730469 3.460937-7.730469 7.726562 0 4.269532 3.460937 7.726563 7.730469 7.726563 4.269531 0 7.734375-3.457031 7.734375-7.726563zm0 0"/><path d="m372.503906 271.90625c0-4.269531-3.460937-7.726562-7.730468-7.726562-4.273438 0-7.734376 3.457031-7.734376 7.726562 0 4.265625 3.460938 7.726562 7.734376 7.726562 4.269531 0 7.730468-3.460937 7.730468-7.726562zm0 0"/></svg>