<svg id="Capa_1" enable-background="new 0 0 511.967 511.967" height="512" viewBox="0 0 511.967 511.967" width="512" xmlns="http://www.w3.org/2000/svg"><path d="m492.653 301.254c3.602-4.834 6.501-10.238 8.512-16.083 12.313-35.794 14.193-79.872 5.16-120.932-9.697-44.079-31.041-81.351-60.098-104.951-46.339-37.635-116.399-54.912-170.376-42.015-26.172 6.253-47.544 19.147-63.098 37.825-22.92-7.967-48.671-9.458-74.961-4.239-33.263 6.604-63.582 22.934-87.235 46.221-3.043 2.996-2.941 7.936.236 10.789l.155.139c2.897 2.602 7.325 2.519 10.099-.214 21.596-21.273 49.294-36.192 79.667-42.223 20.749-4.119 42.542-3.863 62.869 2.295-22.494 36.496-17.386 80.499-2.901 119.058-33.586 11.256-63.126 33.028-83.772 61.907-16.96 23.724-28.29 52.604-31.901 81.319-.747 5.935-7.898 8.995-12.612 5.178-31.986-25.897-53.229-65.268-56.825-105.317-2.195-24.452 1.957-49.798 12.006-73.299 4.359-10.195 9.18-18.929 15.524-27.795 2.265-3.166 1.626-7.559-1.401-10.006-.051-.041-.102-.082-.153-.123-3.311-2.676-8.198-2.016-10.674 1.447-6.958 9.728-12.305 19.393-17.088 30.579-11.022 25.776-15.571 53.625-13.155 80.54 2.121 23.618 9.475 46.531 21.196 67.143-9.859 10.314-15.935 24.273-15.935 39.634 0 16.441 6.947 31.29 18.059 41.766 11.487 10.83 27.133 16.488 42.888 15.527 7.961 20.884 20.341 40.074 36.678 56.41 30.37 30.37 70.59 47.095 113.25 47.095h78.464c45.123 0 88.483-19.517 118.776-52.894 13.998.895 28.173 2.608 42.202 2.608 14.164 0 27.212-6.833 35.321-18.641 8.647-12.592 9.999-28.394 3.616-42.271-1.524-3.301-3.547-6.431-5.313-9.61 10.061-10.347 16.274-24.453 16.274-39.99 0-14.03-5.065-26.894-13.454-36.877zm-471.761 36.877c0-9.987 3.478-19.171 9.275-26.426 7.532 10.818 16.338 20.828 26.291 29.745.235 13.353 2.109 26.449 5.53 39.059-22.778-.699-41.096-19.433-41.096-42.378zm189.038-250.224c12.888-28.894 36.889-48.274 69.407-56.044 53.123-12.693 115.482 4.997 157.433 39.069 26.435 21.47 45.934 55.751 54.905 96.53 8.458 38.444 6.747 79.569-4.694 112.831-5.567 16.185-20.188 27.915-37.246 29.883-16.356 1.888-35.669 2.622-54.895-6.25-31.118-14.361-57.519-40.05-74.337-72.334-7.32-14.051-28.265-13.655-34.226 1.751-2.221 5.739-3.894 11.78-4.974 17.957-2.394 6.211-6.567 7.753-12.52 4.628-22.736-17.906-40.529-41.305-51.456-67.67-7.554-18.225-23.395-64.486-7.397-100.351zm197.607 342.684-120.505-7.707c-2.576-14.8-15.506-26.092-31.032-26.092-17.373 0-31.507 14.134-31.507 31.507s14.134 31.507 31.507 31.507c14.044 0 25.968-9.239 30.023-21.956l108.174 6.918c-27.065 25.287-62.005 39.161-98.965 39.161h-78.464c-38.654 0-75.107-15.165-102.644-42.702-24.457-24.457-39.144-55.95-42.126-89.769 13.057 3.123 26.227-6.192 27.893-19.434 3.306-26.288 13.684-52.734 29.22-74.467 19.024-26.611 46.337-46.596 77.368-56.749 12.042 25.947 30.25 48.969 53.024 66.905 17.452 9.16 29.644 4.55 36.575-13.829.912-5.212 2.321-10.302 4.188-15.128 2.15-3.06 4.461-3.138 6.934-.233 18.345 35.213 47.237 63.277 81.355 79.022 16.337 7.54 34.204 9.656 52.022 8.519v12.521c0 33.863-11.64 66.036-33.04 92.006zm-135.03-2.292c0 9.102-7.405 16.507-16.507 16.507s-16.507-7.405-16.507-16.507 7.405-16.507 16.507-16.507 16.507 7.405 16.507 16.507zm206.658-6.788c-5.627 8.194-14.903 12.712-24.83 12.073l-28.767-1.84c8.129-11.288 14.698-23.482 19.592-36.32 11.412.696 22.904-2.055 32.741-7.892l3.728 6.713c4.028 8.971 3.114 19.145-2.464 27.266zm-29.153-41.001c3.666-13.512 5.565-27.58 5.565-41.926v-14.132c9.859-1.849 18.978-6.155 26.601-12.307 5.589 7.185 8.929 16.2 8.929 25.986 0 22.945-18.317 41.68-41.095 42.379z"/><path d="m161.849 337.034c-4.142 0-7.5 3.358-7.5 7.5v14.876c0 4.142 3.358 7.5 7.5 7.5s7.5-3.358 7.5-7.5v-14.876c0-4.142-3.357-7.5-7.5-7.5z"/><path d="m350.15 337.034c-4.142 0-7.5 3.358-7.5 7.5v14.876c0 4.142 3.358 7.5 7.5 7.5s7.5-3.358 7.5-7.5v-14.876c0-4.142-3.358-7.5-7.5-7.5z"/><path d="m278.747 353.144c-15.822 10.409-29.842 10.413-45.459.022-3.449-2.296-8.104-1.36-10.398 2.089-2.295 3.448-1.36 8.104 2.089 10.399 10.384 6.91 20.648 10.364 30.941 10.364 10.281 0 20.592-3.448 31.072-10.343 3.46-2.276 4.42-6.927 2.144-10.388-2.277-3.46-6.929-4.419-10.389-2.143z"/></svg>