<svg id="Layer_1" data-name="Layer 1" xmlns="http://www.w3.org/2000/svg" viewBox="0 0 80 80"><defs><style>.cls-1{fill:none;stroke:#000;stroke-miterlimit:10;stroke-width:0.8px;}</style></defs><title>icons</title><line class="cls-1" x1="20.05" y1="5.46" x2="56.94" y2="5.46"/><line class="cls-1" x1="26.15" y1="5.62" x2="22.66" y2="11.41"/><line class="cls-1" x1="30.86" y1="11.41" x2="32.97" y2="5.62"/><line class="cls-1" x1="46.4" y1="11.41" x2="44.37" y2="5.62"/><line class="cls-1" x1="54.59" y1="11.41" x2="51.14" y2="5.62"/><rect class="cls-1" x="20.05" y="11.62" width="6.09" height="6.99"/><rect class="cls-1" x="28.27" y="11.62" width="6.09" height="6.99"/><rect class="cls-1" x="42.93" y="11.62" width="6.09" height="6.99"/><rect class="cls-1" x="51.14" y="11.62" width="6.09" height="6.99"/><rect class="cls-1" x="36.9" y="5.62" width="3.44" height="12.99"/><polyline class="cls-1" points="45.86 23.01 60.09 23.01 60.09 18.61 42.77 18.61 34.39 18.61 17.3 18.61 17.3 23.01 31.29 23.01"/><polyline class="cls-1" points="42.77 18.61 45.86 23.01 49.78 28.59 49.93 51.75 27.37 51.75 27.37 28.59 31.29 23.01 34.39 18.61"/><polyline class="cls-1" points="53.98 58.76 62.37 58.76 62.37 51.75 49.93 51.75 27.37 51.75 15.24 51.75 15.24 58.76 23.4 58.76"/><path class="cls-1" d="M54,58.76h9.53a4.57,4.57,0,0,1,4.57,4.57v8.49a0,0,0,0,1,0,0H49.41a0,0,0,0,1,0,0V63.33A4.57,4.57,0,0,1,54,58.76Z"/><path class="cls-1" d="M13.87,58.76H23.4A4.57,4.57,0,0,1,28,63.33v8.49a0,0,0,0,1,0,0H9.3a0,0,0,0,1,0,0V63.33A4.57,4.57,0,0,1,13.87,58.76Z"/><polyline class="cls-1" points="15.24 74.54 18.14 74.54 21.04 74.54"/><line class="cls-1" x1="18.14" y1="71.83" x2="18.14" y2="74.54"/><polyline class="cls-1" points="55.85 74.54 58.75 74.54 61.65 74.54"/><line class="cls-1" x1="58.75" y1="71.83" x2="58.75" y2="74.54"/><line class="cls-1" x1="27.97" y1="68.27" x2="49.41" y2="68.27"/><rect class="cls-1" x="55.4" y="24.99" width="15.3" height="23.78"/><rect class="cls-1" x="57.82" y="28.08" width="10.27" height="15.86"/><circle class="cls-1" cx="58.12" cy="46.66" r="0.63"/><circle class="cls-1" cx="45.15" cy="27.57" r="1.12"/><circle class="cls-1" cx="32.44" cy="27.57" r="1.12"/><circle class="cls-1" cx="36.42" cy="21.89" r="1.12"/><circle class="cls-1" cx="40.71" cy="21.89" r="1.12"/><circle class="cls-1" cx="61.37" cy="46.66" r="0.63"/><circle class="cls-1" cx="64.61" cy="46.66" r="0.63"/><circle class="cls-1" cx="67.86" cy="46.66" r="0.63"/><line class="cls-1" x1="27.06" y1="60.71" x2="50.24" y2="60.71"/><path class="cls-1" d="M18.68,58.76a3.57,3.57,0,0,1,3.52-3h33a3.55,3.55,0,0,1,3.52,3"/><polygon class="cls-1" points="50.24 34.32 55.4 34.32 55.4 37.91 49.84 37.91 49.82 34.32 50.24 34.32"/><line class="cls-1" x1="36.42" y1="25.43" x2="36.42" y2="51.47"/><line class="cls-1" x1="40.71" y1="25.43" x2="40.71" y2="51.47"/><line class="cls-1" x1="32.44" y1="31" x2="32.44" y2="51.47"/><line class="cls-1" x1="45.15" y1="31" x2="45.15" y2="51.47"/></svg>