<svg id="Layer_1" data-name="Layer 1" xmlns="http://www.w3.org/2000/svg" viewBox="0 0 80 80"><defs><style>.cls-1,.cls-2,.cls-3{fill:none;stroke:#000;stroke-miterlimit:10;}.cls-1{stroke-width:0.64px;}.cls-2{stroke-width:0.64px;}.cls-3{stroke-width:0.64px;}</style></defs><title>icons</title><rect class="cls-1" x="5.62" y="18.39" width="68.76" height="31.43"/><rect class="cls-1" x="60.5" y="5.62" width="4.35" height="27.5"/><rect class="cls-1" x="15.44" y="5.62" width="4.35" height="27.5"/><polyline class="cls-1" points="5.62 33.12 19.79 33.12 74.38 33.12"/><line class="cls-1" x1="19.79" y1="49.82" x2="19.79" y2="33.12"/><line class="cls-1" x1="60.5" y1="49.82" x2="60.5" y2="33.12"/><rect class="cls-1" x="5.62" y="41.47" width="10.38" height="10.38"/><rect class="cls-1" x="64" y="41.47" width="10.38" height="10.38"/><line class="cls-1" x1="19.79" y1="46.03" x2="60.5" y2="46.03"/><line class="cls-1" x1="29.9" y1="46.03" x2="29.9" y2="49.82"/><line class="cls-1" x1="40.15" y1="46.03" x2="40.15" y2="49.82"/><line class="cls-1" x1="50.33" y1="46.03" x2="50.33" y2="49.82"/><line class="cls-1" x1="19.79" y1="41.47" x2="60.5" y2="41.47"/><circle class="cls-1" cx="69.19" cy="23.75" r="1.77"/><circle class="cls-1" cx="69.19" cy="28.53" r="1.11"/><polyline class="cls-1" points="11.13 67.36 11.13 51.86 11.13 49.82 15.44 49.82"/><line class="cls-1" x1="15.44" y1="67.36" x2="15.44" y2="51.86"/><line class="cls-1" x1="64.85" y1="67.36" x2="64.85" y2="51.86"/><line class="cls-1" x1="69.15" y1="67.36" x2="69.15" y2="51.86"/><line class="cls-1" x1="69.15" y1="49.82" x2="64.85" y2="49.82"/><rect class="cls-1" x="9.13" y="67.36" width="9.12" height="4.49"/><rect class="cls-1" x="62.44" y="67.36" width="9.12" height="4.49"/><rect class="cls-1" x="9.83" y="71.85" width="7.78" height="2.53"/><line class="cls-1" x1="13.69" y1="74.38" x2="13.69" y2="71.85"/><rect class="cls-1" x="63.11" y="71.85" width="7.78" height="2.53"/><line class="cls-1" x1="66.97" y1="74.38" x2="66.97" y2="71.85"/><line class="cls-2" x1="60.5" y1="8.57" x2="50.69" y2="8.57"/><line class="cls-3" x1="29.53" y1="8.57" x2="19.78" y2="8.57"/><polyline class="cls-1" points="29.32 8.55 31.57 10.8 48.66 10.8 50.91 8.55"/></svg>