<?xml version="1.0" encoding="iso-8859-1"?>
<!-- Generator: Adobe Illustrator 18.1.1, SVG Export Plug-In . SVG Version: 6.00 Build 0)  -->
<svg version="1.1" id="Capa_1" xmlns="http://www.w3.org/2000/svg" xmlns:xlink="http://www.w3.org/1999/xlink" x="0px" y="0px"
	 viewBox="0 0 290.065 290.065" style="enable-background:new 0 0 290.065 290.065;" xml:space="preserve">
<g>
	<path id="rect22454" d="M195.045,10.013c-0.956,0.003-1.892,0.28-2.695,0.799L120,56.03V35.052c0-13.764-11.236-25-25-25H25
		c-13.764,0-25,11.236-25,25v75c0,2.761,2.239,5,5,5h190c2.761,0,5-2.239,5-5v-45c0-2.761-2.239-5-5-5h-62.566l65.215-40.76
		C201.987,16.668,200.116,9.997,195.045,10.013z M25,20.052h70c8.396,0,15,6.604,15,15v30c0,2.761,2.239,5,5,5h75v35H10v-70
		C10,26.655,16.604,20.052,25,20.052z M20,27.552c-1.381,0-2.5,1.119-2.5,2.5v40c-0.02,1.381,1.084,2.516,2.465,2.535
		c1.381,0.02,2.516-1.084,2.535-2.465c0-0.024,0-0.047,0-0.071v-37.5H50c1.381,0.02,2.516-1.084,2.535-2.465
		s-1.084-2.516-2.465-2.535c-0.024,0-0.047,0-0.071,0H20z M285.023,95.019c-0.787,0.006-1.561,0.199-2.26,0.561l-60,30
		c-2.492,1.191-3.546,4.177-2.355,6.668s4.177,3.546,6.668,2.355c0.054-0.026,0.107-0.052,0.159-0.08l60-30
		c2.487-1.2,3.531-4.19,2.33-6.677C288.726,96.104,286.957,95.003,285.023,95.019z M285.023,125.019
		c-0.787,0.006-1.561,0.199-2.26,0.561l-60,30c-2.492,1.191-3.546,4.177-2.355,6.668s4.177,3.546,6.668,2.355
		c0.054-0.026,0.107-0.052,0.159-0.08l60-30c2.487-1.2,3.531-4.19,2.33-6.677C288.726,126.104,286.957,125.003,285.023,125.019z
		 M5,125.052c-2.761,0-5,2.239-5,5v60c0,2.761,2.239,5,5,5h190c2.761,0,5-2.239,5-5v-60c0-2.761-2.239-5-5-5H5z M10,135.052h180v50
		H10V135.052z M285.023,154.982c-0.787,0.006-1.561,0.199-2.26,0.561l-60,30c-2.492,1.191-3.546,4.177-2.355,6.668
		s4.177,3.546,6.668,2.355c0.054-0.026,0.107-0.052,0.159-0.08l60-30c2.487-1.2,3.531-4.19,2.33-6.677
		C288.726,156.067,286.957,154.966,285.023,154.982z M5,205.052c-2.761,0-5,2.239-5,5v45c0,13.764,11.236,25,25,25h150
		c13.764,0,25-11.236,25-25v-45c0-2.761-2.239-5-5-5h-50c-1.082,0-2.135,0.351-3,1l-18.668,14H66.666l-18.666-14
		c-0.865-0.649-1.918-1-3-1H5z M10,215.052h33.332l18.668,14c0.866,0.649,1.918,1,3,1h60c1.082,0,2.135-0.351,3-1l18.666-14H190v40
		c0,8.396-6.604,15-15,15H25c-8.396,0-15-6.604-15-15V215.052z M179.961,237.517c-1.379,0.022-2.48,1.156-2.461,2.535v17.5H165
		c-1.381-0.02-2.516,1.084-2.535,2.465s1.084,2.516,2.465,2.535c0.024,0,0.047,0,0.071,0h15c1.381,0,2.5-1.119,2.5-2.5v-20
		c0.019-1.381-1.084-2.516-2.465-2.535C180.01,237.516,179.986,237.516,179.961,237.517z"/>
</g>
<g>
</g>
<g>
</g>
<g>
</g>
<g>
</g>
<g>
</g>
<g>
</g>
<g>
</g>
<g>
</g>
<g>
</g>
<g>
</g>
<g>
</g>
<g>
</g>
<g>
</g>
<g>
</g>
<g>
</g>
</svg>
