<svg version="1.1" id="Layer_1" xmlns="http://www.w3.org/2000/svg" x="0" y="0" viewBox="0 0 147 100" xml:space="preserve"><style>.st2,.st3{fill-rule:evenodd;clip-rule:evenodd;fill:#00a85a}.st3{fill:#4a4cc9}</style><g id="Layer_x0020_1"><g id="_105553710498240"><linearGradient id="SVGID_1_" gradientUnits="userSpaceOnUse" x1="36.254" y1="23.875" x2="138.776" y2="23.875" gradientTransform="matrix(1 0 0 -1 0 100)"><stop offset="0" stop-color="#af3592"/><stop offset=".349" stop-color="#d8363b"/><stop offset=".671" stop-color="#ffcc2a"/><stop offset="1" stop-color="#009556"/></linearGradient><path fill-rule="evenodd" clip-rule="evenodd" fill="url(#SVGID_1_)" d="M69.7 87.1h2.4l2.5-.3h2.5l1.7-.8 1.6-.3 1.4-.6 1.7-.1 1.3-.7 1.6-.2 1.5-.4 1.4-.6 1.7-.2 1.5-.7 1.9-.2 1.6-.5 1.6-.5 1.7-.5 1.7-.3 1.5-.7 1.9-.1 1.6-.5 1.8-.4 1.8-.2 1.6-.6 1.9.2 1.7-.6 1.8-.2 1.8-.2 1.8.2 1.8.1 1.8-.2 1.8.3 1.8-.2 1.8.1 1.8.2 1.5.2 1 .1.5.6v.9l1.1.3 1.4-.5 1.2-1.1.5-.8.6-.6-.3-.4-1.5-1.2-2.2-.8-2.3-.1-2.4-.2-2.7-.2-2.6-.1-2.3.3h-2.4l-2.4.1-2.1-.1-1.5.6-1.7-.1-1.5.4-1.6.3h-1.7l-1.5.4-1.6.3-1.8.1-1.8.5-2 .1-1.7.6-1.9.5-2 .5-1.9.7-2 .5-2 .4-1.9.5-1.9.4-1.8.7-1.2-.2-.3-.2 1.2-.4 1.1-.7 1.2-.6 1-.9 1.2-.6 1.1-.8 1.1-.8 1-.8.9-1.2.8-1.6-.7-1.8-2-.9-1.7-.7-2.5-.3-2.9.2-2.3.3-2 .4-2.1.1-2 .4-1.7.7-2 .1-1.6.8-1.8.4-1.8.6-2 .2-1.7.6-1.9.3-1.6.6-1.6.5-1.6.5h-1.8l-1.5.7-1.7.2-1.5.6-1.7.4-1.6.1-.6.5.6-.2.8-.7 1.1-.8.9-1.1.4-1.4.8-1.3.5-1.4 1.1-1.3.2-1.6.4-1.5.2-1.5-.1.2-1.3 1.6-1.6 1.5-1.4 1.6-1.3 1.6-1.3 1.7-1.6 1.6-1.2 1.7L39 78l-1.1 1.2-1.1 1.6-.1 1.4.6.7.8.7 1.4.2 1.6-.6 1.8-.2 1.7-.8 2.1-.9 2-.5 1.8-.4 1.6-.6 1.6-.7 1.8-.5 1.6-.7 1.7-.4 1.8-.4 2.1-.8 2.6-1 3-.3 2.7-.8 2.5-.6 2.4-.6 2.1-.3 1.9-.4h3.5l1.5.6.5.5-.3.9-1.4.6-1.2.7-1.4.6-1.3.7-1.9.8-2.1 1.3-2.7 1-2.1 1.4-1.7 1.1-.5 1.2-.3 1.2.1 1.2z"/><path d="M49.3 72.3h-.4c-3.3 0-6-2.9-6-6.4v-4.2.2s1.3 2.6 1.7 4c0 2.7 2 4.8 4.5 4.8h.5c2.5 0 4.5-2.2 4.5-4.8.4-1.4 1.7-4 1.7-4v-.2 4.2c0 3.6-2.7 6.4-6 6.4h-.5z" fill-rule="evenodd" clip-rule="evenodd" fill="#000094"/><path class="st2" d="M89.8 41.3l-5.6-8.2s-21 9.1-28.4 28.4c0 0 11.1-18.5 33.8-19.9l.2-.3z"/><path class="st3" d="M6 52.1l5.4-8.4s18 1.4 29 16.2c0 0-11.8-12.7-34-7.8H6z"/><path class="st2" d="M8.6 41.3l5.6-8.2s21 9.1 28.4 28.4c0 0-11-18.5-33.8-19.9l-.2-.3z"/><path class="st3" d="M92.5 52.1L87 43.7s-18 1.4-29 16.2c0 0 11.8-12.7 34-7.8h.5z"/><path d="M45.9 66C43.8 47.9 21.5 31.9 12 28.4l9.4-14.3c5.5 1.5 23.6 11.4 27.7 39 4.9-33.3 27.5-39 27.5-39L86 28.4s-24.1 8.7-33.7 37.5c-1.2 2-1.9 2-3.2 2-1.4 0-2.4-.2-3.2-1.9z" fill-rule="evenodd" clip-rule="evenodd" fill="#e00000"/></g></g></svg>