<svg id="Layer_1" data-name="Layer 1" xmlns="http://www.w3.org/2000/svg" viewBox="0 0 96.9 21.4"><defs><radialGradient id="radial-gradient" cx="49.32" cy="-21.32" r="4.85" gradientTransform="translate(0 30)" gradientUnits="userSpaceOnUse"><stop offset="0" stop-color="#fff"/><stop offset=".42" stop-color="#009556"/><stop offset="1" stop-color="#373535"/></radialGradient><linearGradient id="linear-gradient" x1="8.69" y1="-12" x2="38.55" y2="-12" gradientTransform="translate(.1 30)" gradientUnits="userSpaceOnUse"><stop offset="0" stop-color="#af3592"/><stop offset=".35" stop-color="#d8363b"/><stop offset=".67" stop-color="#ffcc2a"/><stop offset="1" stop-color="#009556"/></linearGradient><style>.cls-1{fill:#606163}.cls-4,.cls-5,.cls-6,.cls-8{fill-rule:evenodd}.cls-4{fill:#00a85a}.cls-5{fill:#4a4cc9}.cls-6{fill:#00d100}.cls-8{fill:#e00000}</style></defs><g id="Layer_1-2" data-name="Layer_1"><g id="_105553710873344" data-name="105553710873344"><path class="cls-1" d="M38.6 19.7a.1.1 0 01.1-.1h.2l.1.1v.2c0 .1 0 .1.1.2s.1.1.2.1.1.1.2.1.2 0 .2.1c.2 0 .3 0 .4-.1a.37.37 0 00.1-.3c0-.1 0-.2-.1-.2s-.1-.1-.2-.1-.1-.1-.2-.1-.2-.1-.3-.1a.37.37 0 01-.3-.1.35.35 0 01-.2-.1l-.2-.2c0-.1-.1-.2-.1-.3a.37.37 0 01.1-.3.22.22 0 01.2-.2c.1-.1.2-.1.3-.2s.3-.1.4-.1h.4c.1 0 .2.1.3.1V18l.1-.1.1-.1h.2c-.1 0-.1.1-.2.2a.75.75 0 00-.1.5c0-.1 0-.1-.1-.2s-.1-.1-.1-.2-.1-.1-.2-.1-.2-.1-.3-.1h-.2c-.1 0-.1 0-.1.1l-.1.1v.1a.37.37 0 00.1.3c.1.1.2.1.4.2s.2.1.3.1.2.1.3.1.2.1.2.2a.5.5 0 010 .6c-.1.1-.1.2-.2.3s-.2.1-.3.2-.2.1-.4.1h-.6c-.1 0-.1 0-.2-.1s-.1 0-.1-.1l.1-.1.1-.1a.1.1 0 01.1-.1v-.3l-.1-.1c-.3.3-.3.3-.4.3zm3.5.6l-.1.1-.1.1c-.1 0-.1.1-.2.1h-.2a.37.37 0 01-.3-.1.22.22 0 01-.2-.2c-.1-.1-.1-.1-.1-.2v-.3a.37.37 0 01.1-.3.35.35 0 01.1-.2l.2-.2c.1-.1.1-.1.2-.1h.7c.1 0 .2.1.3.1l.2.2a.5.5 0 010 .6c0 .1-.1.1-.1.2s-.1.1-.1.2c-.3-.1-.3-.1-.4 0zm-.3 0a.37.37 0 00.3-.1c.1-.1.1-.2.1-.4v-.3a.35.35 0 00-.1-.2l-.2-.2h-.4a.1.1 0 00-.1.1c0 .1-.1.1-.1.2v.3a.37.37 0 00.1.3c0 .1.1.1.1.2s.1.1.2.1z" transform="translate(.1)"/><path class="cls-1" d="M44.3 19.1l-.1.1-.1.1-.1.1v-.1l-.1-.1a.1.1 0 01-.1-.1h-.2c-.1 0-.2 0-.2.1s-.1.2-.1.4a.37.37 0 00.1.3.35.35 0 00.1.2c.1.1.1.1.2.1s.2.1.3.1a.37.37 0 00.3-.1c.1 0 .1-.1.2-.1l-.1.1c-.1 0-.1.1-.2.1s-.2.1-.3.1-.2.1-.3.1a1.42 1.42 0 01-.6-.2.76.76 0 01-.2-.5c0-.2 0-.3.1-.4l.3-.3a.37.37 0 01.3-.1c.1 0 .2-.1.3-.1h.3l.2.2c-.1-.1 0-.1 0 0z" transform="translate(.1)"/><path class="cls-1" d="M44.9 20v.2a.1.1 0 00.1.1h.4a.1.1 0 00-.1.1c-.1 0-.1.1-.2.1a.35.35 0 00-.2.1h-.2c-.1 0-.1 0-.1-.1l-.1-.1v-1h-.1a.1.1 0 00.1-.1c.1 0 .1-.1.2-.1s.1-.1.2-.1h.2v.8l-.2.1zm-.1-1.7l.1.1.1.1v.2a.1.1 0 00-.1.1l-.1.1h-.2l-.1-.1a.1.1 0 01-.1-.1v-.1l.1-.1a.1.1 0 00.1-.1.35.35 0 01.2-.1z" transform="translate(.1)"/><path class="cls-1" d="M46.9 20.1l-.1.1c-.1.1-.1.1-.2.1a.37.37 0 01-.3.1c-.1 0-.2.1-.3.1h-.3a.35.35 0 01-.2-.1l-.2-.2v-.6c0-.1 0-.1.1-.2a.1.1 0 01.1-.1l.1-.1.1-.1c.1 0 .1-.1.2-.1s.1-.1.2-.1h.2a.37.37 0 01.3.1c.1 0 .1.1.1.2v.1h.1a.1.1 0 00.1-.1h.2v.1a.35.35 0 01-.2.1.35.35 0 00-.2.1c-.1 0-.2.1-.3.1s-.2.1-.3.1-.1.1-.2.1-.1 0-.1.1v.2c0 .1.1.1.1.2s.1.1.2.1h.5c.1 0 .1 0 .2-.1s0-.2.1-.2zm-1.2-.5a.1.1 0 00.1-.1c.1 0 .1 0 .1-.1s.1 0 .1-.1a.1.1 0 00.1-.1l.1-.1V19a.1.1 0 00-.1-.1l-.1-.1h-.2l-.1.1a.35.35 0 00-.1.2 1.34 1.34 0 01.1.5z" transform="translate(.1)"/><path class="cls-1" d="M48.3 20.3l-.1.1c-.1 0-.1.1-.2.1s-.1.1-.2.1h-.2c-.1 0-.2 0-.2-.1s-.1-.1-.2-.1-.1-.1-.1-.2-.1-.2-.1-.3a.6.6 0 01.1-.4c.1-.1.1-.2.2-.3s.2-.1.4-.2a4.33 4.33 0 01.5-.1h.2v-.5c0-.1 0-.1-.1-.2l-.1-.1h.7v1.5c0 .2 0 .3.1.4s.1.1.2.1h.4a.1.1 0 00-.1.1c-.1 0-.1.1-.2.1s-.2.1-.3.1a.35.35 0 00-.2.1h-.1v-.3l-.4.1zm-.1-.2a.31.31 0 00.1-.2v-.6a.1.1 0 00-.1-.1l-.1-.1c-.1 0-.1 0-.2-.1h-.4a.1.1 0 00-.1.1.35.35 0 00-.1.2v.6a.35.35 0 00.1.2c.1.1.1.1.2.1a.35.35 0 01.2.1h.2s.2-.1.2-.2z" transform="translate(.1)"/><path class="cls-1" d="M50.2 20v-.4h-.1c-.1 0-.1 0-.1.1s-.1 0-.1.1-.1 0-.1.1a.1.1 0 00-.1.1v.1c0 .1 0 .1.1.2a.35.35 0 00.2.1h.1a2653771530219 2653771530219 0 00.2-.2c-.2-.1-.2-.1-.1-.2zm-.1-.5c0-.1 0-.1-.1-.2s0-.1-.1-.1l-.1-.1h-.2a7961314590657.26 7961314590657.26 0 00-.2.2v.1h-.1v-.1c.1 0 .1-.1.2-.1a.35.35 0 00.2-.1.37.37 0 00.3-.1h.4a.1.1 0 01.1.1c0 .1 0 .1.1.2v.5a.37.37 0 00.1.3c0 .1.1.1.1.2a.1.1 0 00.1.1h.2a.1.1 0 00-.1.1.1.1 0 00-.1.1c-.1 0-.1.1-.2.1s-.1 0-.2.1h-.2l-.1-.1v-.3a.35.35 0 01-.2.1c-.1.1-.1.1-.2.1a.35.35 0 00-.2.1h-.4a.1.1 0 01-.1-.1l-.1-.1v-.1c0-.1 0-.1.1-.2s.1-.1.2-.1a.35.35 0 01.2-.1c.1 0 .2-.1.3-.1a.35.35 0 00.2-.1.44.44 0 01.1-.3zm2.2.8l-.1.1c-.1 0-.1.1-.2.1s-.1.1-.2.1h-.2c-.1 0-.2 0-.2-.1s-.1-.1-.2-.1-.1-.1-.1-.2-.1-.2-.1-.3a.6.6 0 01.1-.4c.1-.1.1-.2.2-.3s.2-.1.4-.2a4.33 4.33 0 01.5-.1h.2v-.5c0-.1 0-.1-.1-.2l-.1-.1h.6v1.5c0 .2 0 .3.1.4s.1.1.2.1h.4a.1.1 0 00-.1.1c-.1 0-.1.1-.2.1s-.2.1-.3.1a.35.35 0 00-.2.1h-.1v-.3l-.3.1zm0-.2a.31.31 0 00.1-.2v-.6a.1.1 0 00-.1-.1.1.1 0 01-.1-.1c-.1 0-.1 0-.2-.1h-.4a.1.1 0 00-.1.1.35.35 0 00-.1.2v.6a.35.35 0 00.1.2c.1.1.1.1.2.1a.35.35 0 01.2.1h.2l.2-.2c-.1.1 0 .1 0 0z" transform="translate(.1)"/><path class="cls-1" d="M54.7 20.1l-.1.1c-.1.1-.1.1-.2.1a.37.37 0 01-.3.1c-.1 0-.2.1-.3.1h-.3c-.1 0-.2-.1-.3-.1l-.2-.2a.37.37 0 01-.1-.3v-.3c0-.1 0-.1.1-.2s0-.1.1-.1l.1-.1.1-.1c.1 0 .1-.1.2-.1s.1-.1.2-.1h.2a.37.37 0 01.3.1c.1 0 .1.1.1.2s0 .1-.1.1h.1a.1.1 0 00.1-.1h.2v.1a.35.35 0 01-.2.1.35.35 0 00-.2.1c-.1 0-.2.1-.3.1s-.2.1-.3.1-.1.1-.2.1-.1 0-.1.1 0 .1.1.2.1.1.1.2.1.1.2.1h.5c.1 0 .1 0 .2-.1s.2-.2.3-.2zm-1.3-.5a.1.1 0 00.1-.1c.1 0 .1 0 .2-.1a7961314590657 7961314590657 0 01.2-.2.1.1 0 00.1-.1V19a.1.1 0 00-.1-.1l-.1-.1h-.2l-.1.1a.35.35 0 00-.1.2.78.78 0 010 .5zm3-1.3a.1.1 0 00-.1.1c-.1.1-.1.1-.1.2a.37.37 0 00-.1.3c0 .1-.1.3-.1.4a.9.9 0 00.1.5c0 .1.1.3.2.3s.1.2.3.2a.5.5 0 00.6 0 .31.31 0 01.2-.1c.1-.1.1-.2.2-.4v-1.4h.6v.1h-.3v2.1a.1.1 0 00.1.1h.2a.1.1 0 01-.1.1h-.2a.1.1 0 01-.1-.1h-.4v-.3c-.1.1-.2.2-.3.2a.75.75 0 01-.5.1c-.2 0-.3 0-.4-.1s-.2-.1-.3-.2-.2-.2-.2-.3a.6.6 0 01-.1-.4.76.76 0 01.1-.4c.1-.1.1-.2.2-.3s.1-.2.2-.3l.2-.2h-.5a.1.1 0 00-.1.1v-.4h.9c-.2 0-.2 0-.2.1z" transform="translate(.1)"/><path class="cls-1" d="M58.9 19.7v.7h.1c-.1 0-.1 0-.1.1s-.1 0-.2.1h-.2v-1.2a.1.1 0 00-.1-.1l-.1-.1h-.1a.1.1 0 00.1-.1c0-.1.1-.1.2-.1s.1 0 .1-.1h.1c.1 0 .1 0 .1.1v.4c.1 0 .1-.1.2-.1s.1-.1.2-.1.1-.1.2-.1h.2c.1 0 .3 0 .3.1a.37.37 0 01.1.3v.8c0 .2.1.3.2.3h.3a.1.1 0 00-.1.1c-.1 0-.1.1-.2.1s-.1.1-.2.1h-.3v-.8c0-.2 0-.3-.1-.4a.37.37 0 00-.3-.1h-.2a.1.1 0 00-.1.1l-.1.1v-.1zm2.2.3v.2a.1.1 0 00.1.1h.4a.1.1 0 00-.1.1c-.1 0-.1.1-.2.1s-.1.1-.2.1h-.2c-.1 0-.1 0-.1-.1l-.1-.1v-1h-.1a.1.1 0 00.1-.1c.1 0 .1-.1.2-.1s.1-.1.2-.1h.2v.8c-.2-.1-.2.1-.2.1zm-.1-1.7l.1.1.1.1v.1l-.1.1a.1.1 0 00-.1.1l-.1.1h-.2l-.1-.1a.1.1 0 01-.1-.1v-.1l.1-.1a.1.1 0 00.1-.1c.1 0 .2-.1.3-.1z" transform="translate(.1)"/><path class="cls-1" d="M62.9 20.4a.37.37 0 01-.3.1c-.1 0-.2.1-.3.1h-.2v.6l.1.1H62c-.1 0-.1 0-.2.1h-.2v-1.9c0-.1 0-.1-.1-.2l-.1-.1h.1a.1.1 0 00.1-.1c.1 0 .1 0 .1-.1h.3v.3l.1-.1a.35.35 0 01.2-.1c.1 0 .1-.1.2-.1h.2a.37.37 0 01.3.1c.1 0 .1.1.2.1s.1.1.1.2v.2a.37.37 0 01-.1.3.35.35 0 01-.1.2l-.2.2c-.1 0-.1.1-.2.1.3-.1.2 0 .2 0zm-.8-.3c.1.1.1.1.2.1a.31.31 0 01.2.1c.1.1.1 0 .2 0h.2a.1.1 0 00.1-.1c.1-.1.1-.1.1-.2v-.5c0-.1-.1-.1-.1-.2s-.1-.1-.2-.1h-.3c-.1 0-.1 0-.1.1a.1.1 0 00-.1.1l-.1.1v.5a.1.1 0 00-.1.1zm3.2 0l-.1.1c-.1.1-.1.1-.2.1a.37.37 0 01-.3.1c-.1 0-.2.1-.3.1h-.3c-.1 0-.2-.1-.3-.1l-.2-.2a.37.37 0 01-.1-.3v-.3c0-.1 0-.1.1-.2a.1.1 0 01.1-.1l.1-.1.1-.1c.1 0 .1-.1.2-.1s.1-.1.2-.1h.2a.37.37 0 01.3.1c.1 0 .1.1.1.2v.1h.1a.1.1 0 00.1-.1h.2v.1a.35.35 0 01-.2.1c-.1 0-.1.1-.2.1s-.2.1-.3.1-.2.1-.3.1-.1.1-.2.1-.1 0-.1.1 0 .1.1.2.1.1.1.2.1.1.2.1h.5c.1 0 .1 0 .2-.1s0-.2.2-.2zm-1.3-.5a.1.1 0 00.1-.1c.1 0 .1 0 .2-.1a1592262918131.54 1592262918131.54 0 00.2-.2l.1-.1v-.2a.1.1 0 01-.1-.1h-.2l-.1.1a.35.35 0 00-.1.2 1.34 1.34 0 00-.1.5z" transform="translate(.1)"/><path class="cls-1" d="M65.3 20.4l-.1.1v-.1c0 .1 0 0 .1 0v-.2l.1-.1a.1.1 0 01.1-.1l.1.1.1.1c.1 0 .1.1.2.1h.2c.1 0 .1 0 .2-.1s.1-.1.1-.2 0-.1-.1-.2-.1-.1-.2-.1h-.3a.37.37 0 01-.3-.1c-.1 0-.1-.1-.2-.1s-.1-.1-.1-.2 0-.1.1-.2l.2-.2a.37.37 0 01.3-.1c.1 0 .2-.1.3-.1h.4l-.1.1-.1.1-.1.1h-.1c0-.1 0-.1-.1-.2s-.2-.1-.3-.1-.1 0-.2.1l-.1.1c0 .1 0 .1.1.2s.1.1.2.1h.3a.37.37 0 01.3.1c.1 0 .1.1.2.1s.1.1.1.2v.1a.1.1 0 01-.1.1l-.1.1-.1.1a.1.1 0 00-.1.1c0 .1-.1 0-.1.1s-.1 0-.2.1h-.5c0 .2 0 .2-.1.1zm1.6 0l-.1.1v-.1c0 .1 0 0 .1 0v-.2l.1-.1a.1.1 0 01.1-.1h.1l.1.1.1.1a.35.35 0 00.2.1h.2c.1 0 .1 0 .2-.1s.1-.1.1-.2 0-.1-.1-.2-.1-.1-.2-.1h-.3a.37.37 0 01-.3-.1c-.1 0-.1-.1-.2-.1s-.1-.1-.1-.2 0-.1.1-.2l.2-.2a.37.37 0 01.3-.1c.1 0 .2-.1.3-.1h.4l-.1.1-.1.1-.1.1h-.1c0-.1 0-.1-.1-.2s-.2-.1-.3-.1-.1 0-.2.1a.1.1 0 00-.1.1c0 .1 0 .1.1.2s.1.1.2.1h.3a.37.37 0 01.3.1c.1 0 .1.1.2.1s.1.1.1.2v.1a.1.1 0 01-.1.1l-.1.1-.1.1a1592262918131.49 1592262918131.49 0 01-.2.2c-.1 0-.1 0-.2.1h-.5c0 .2-.1.2-.2.1zm3-.1l-.1.1c-.1 0-.1.1-.2.1s-.1.1-.2.1h-.2a.37.37 0 01-.3-.1.22.22 0 01-.2-.2c-.1-.1-.1-.1-.1-.2s-.1-.2-.1-.3a.37.37 0 01.1-.3.35.35 0 01.1-.2l.2-.2c.1 0 .1-.1.2-.1h.8c.1 0 .2.1.3.1l.2.2a.5.5 0 010 .6c0 .1-.1.1-.1.2s-.1.1-.1.2c-.2-.1-.2-.1-.3 0zm-.3 0a.37.37 0 00.3-.1c.1-.1.1-.2.1-.4v-.3a.35.35 0 00-.1-.2l-.2-.2h-.4a.1.1 0 00-.1.1c0 .1-.1.1-.1.2v.3a.37.37 0 00.1.3c0 .1.1.1.1.2s.1.1.2.1zm2-.3v-.4h-.1c-.1 0-.1 0-.1.1a.1.1 0 00-.1.1c0 .1-.1 0-.1.1a.1.1 0 00-.1.1l-.1.1c0 .1 0 .1.1.2a.35.35 0 00.2.1h.1a7961314590656.77 7961314590656.77 0 00.2-.2V20zm-.1-.5v-.2a.1.1 0 00-.1-.1l-.1-.1h-.2c-.1 0-.1 0-.1.1a.1.1 0 00-.1.1v.1h-.1l-.1-.1c.1 0 .1-.1.2-.1a.35.35 0 00.2-.1.37.37 0 00.3-.1h.4l.1.1c0 .1 0 .1.1.2v.5a.37.37 0 00.1.3c0 .1.1.1.1.2a.1.1 0 00.1.1h.2a.1.1 0 00-.1.1l-.1.1c-.1 0-.1.1-.2.1s-.1 0-.1.1h-.2a.1.1 0 00-.1-.1v-.3c-.1 0-.1.1-.2.1s-.1.1-.2.1a.35.35 0 00-.2.1h-.4c-.1 0-.1 0-.1-.1l-.1-.1v-.1c0-.1 0-.1.1-.2s.1-.1.2-.1a.35.35 0 01.2-.1c.1 0 .2-.1.3-.1a.35.35 0 00.2-.1v-.3zm2.1.7c-.1.1-.2.2-.3.2a.37.37 0 01-.3.1h-.3a.1.1 0 01-.1-.1h-.1v-2c0-.1 0-.1.1-.1h.7v2a.1.1 0 00.1.1h.4s-.3-.2-.2-.2z" transform="translate(.1)"/><path class="cls-1" d="M73.2 20.8a.31.31 0 01.2-.1l.1-.1.1-.1v-.1a.1.1 0 01.1-.1.1.1 0 00.1-.1h.2a.1.1 0 01.1.1l.1.1v.1a.1.1 0 00-.1.1.1.1 0 01-.1.1h-.4a.1.1 0 00-.1.1z" transform="translate(.1)"/><path class="cls-1" d="M73.7 18.3h-.1v-.1a.1.1 0 01.1.1c.1-.1.1-.1.2-.1h1v.1h-.6v2h1a.1.1 0 00.1-.1l-.1.1a.1.1 0 01-.1.1v.2l.1.1v.1-.1h-1.9v-.1h.5v-2.1c.1-.2-.2-.2-.2-.2zm3.3 1.9a.1.1 0 00-.1.1c-.1 0-.1.1-.2.1s-.1.1-.2.1h-.4c-.1 0-.1-.1-.2-.1s-.1-.1-.1-.2-.1-.2-.1-.3a.6.6 0 01.1-.4c.1-.1.1-.2.2-.3s.2-.1.4-.2a4.33 4.33 0 01.5-.1h.2v-.4c0-.1 0-.1-.1-.2l-.1-.1h.7v1.5c0 .2 0 .3.1.3s.1.1.2.1h.4a.1.1 0 00-.1.1c-.1 0-.1.1-.2.1a.37.37 0 01-.3.1h-.3v-.2c-.4.1-.4.1-.4 0zm0-.1c.1-.1.1-.1.1-.2v-.7a.1.1 0 00-.1-.1l-.1-.1c-.1 0-.1 0-.2-.1h-.4c-.1 0-.1 0-.1.1a.35.35 0 00-.1.2v.6c0 .1.1.1.1.2s.1.1.2.1h.4a.14.14 0 00.2 0z" transform="translate(.1)"/><path class="cls-1" d="M78.9 20v-.4a.1.1 0 00-.1.1c-.1 0-.1 0-.1.1s-.1 0-.1.1l-.1.1a.1.1 0 00-.1.1v.1a.31.31 0 00.1.2c0 .1.1.1.2.1h.1a2653771530219.37 2653771530219.37 0 00.2-.2c-.2-.2-.2-.2-.1-.3zm-.1-.5c0-.1 0-.1-.1-.2s0-.1-.1-.1l-.1-.1h-.2a.1.1 0 00-.1.1l-.1.1v.1H78v-.1c.1 0 .1-.1.2-.1a.35.35 0 00.2-.1 1 1 0 01.3-.1h.4a.1.1 0 01.1.1.31.31 0 00.1.2v.5a.37.37 0 00.1.3c0 .1.1.1.1.2l.1.1h.2a.1.1 0 00-.1.1c0 .1-.1 0-.1.1s-.1.1-.2.1-.1 0-.1.1h-.2l-.1-.1v-.3a.35.35 0 01-.2.1c-.1 0-.1.1-.2.1a.35.35 0 00-.2.1H78c-.1 0-.1 0-.1-.1l-.1-.1v-.1c0-.1 0-.1.1-.2a19668661934111 19668661934111 0 01.4-.2c0-.3 0-.3.1-.3a.35.35 0 00.2-.1.31.31 0 01.2-.1z" transform="translate(.1)"/><path fill="url(#linear-gradient)" fill-rule="evenodd" d="M18.5 21.2h.7l.8-.1h.7l.5-.2.4-.1.4-.2h.5l.4-.2.5-.1.4-.1.4-.2h.5l.5-.2.5-.1.5-.1.5-.2.4-.1.6-.1.4-.2h.5l.5-.2.5-.1.5-.1.5-.1h.6l.5-.1.5-.1.5-.1.5.1h1.1l.5.1.5-.1h.6l.5.1.4.1h.3l.2.2v.2l.3.1.4-.1.3-.4.2-.2.1-.2V18l-.5-.3-.6-.3h-1.4l-.8-.1-.7-.1-.7.1-.7.1h-1.3l-.4.1H31l-.5.1-.4.1h-.5l-.5.1-.4.1h-.6l-.5.2H27l-.5.2-.5.1-.6.2-.5.2-.6.1-.6.1-.6.2-.5.1-.6.2-.3-.1h-.1l.4-.1.3-.2.3-.2.3-.3.4-.2.3-.2.3-.2.3-.2.3-.4.2-.5-.2-.5-.6-.3-.5-.2-.7-.1-.8.1-.7.1-.6.1-.6.1-.6.1-.5.2h-.6l-.5.2-.5.2-.5.1-.6.1-.5.2-.5.1-.5.1-.4.2-.5.1h-.5l-.5.2-.5.1-.4.1-.5.2h-.5l-.1.1h.1l.3-.2.3-.3.2-.3.2-.4.2-.4.1-.4.4-.4v-.4l.1-.4.1-.5v.1l-.4.4-.5.5-.4.4-.4.5-.3.5-.5.5-.4.5-.3.4-.3.3-.3.5-.1.4.2.2.2.2.4.1.5-.2.5-.1.5-.2.6-.3.6-.1.5-.1.5-.2.5-.2.5-.1.5-.2.5-.2.5-.1.6-.2.8-.3.8-.1.8-.2.7-.2.7-.2.7-.1.5-.1h1l.4.2.2.1-.1.3-.4.2-.3.2-.4.1-.4.2-.6.3-.6.4-.8.2-.6.5-.5.3-.1.3-.1.4v.3l.3.3z"/><path d="M12.5 16.9h-.1a1.82 1.82 0 01-1.8-1.9v-1.1a5.19 5.19 0 01.5 1.2 1.35 1.35 0 001.3 1.4h.1a1.35 1.35 0 001.3-1.4 8.66 8.66 0 01.5-1.2V15a1.88 1.88 0 01-1.8 1.9z" transform="translate(.1)" fill="#000094" fill-rule="evenodd"/><path class="cls-4" d="M24.3 7.9l-1.6-2.4s-6.1 2.7-8.3 8.3a13 13 0 019.9-5.9z" transform="translate(.1)"/><path class="cls-5" d="M-.1 11l1.6-2.4a12.41 12.41 0 018.4 4.7S6.5 9.6 0 11z" transform="translate(.1)"/><path class="cls-4" d="M.6 7.9l1.7-2.4s6.1 2.7 8.3 8.3a13.52 13.52 0 00-10-5.9z" transform="translate(.1)"/><path class="cls-5" d="M25.1 11l-1.6-2.4a12.6 12.6 0 00-8.4 4.7S18.5 9.6 25 11z" transform="translate(.1)"/><path class="cls-6" d="M33.1 12.2v-7a6.62 6.62 0 00-.1-1.5l-.3-1.2 1.9-.2 1.9-.2a4.67 4.67 0 00-.4 1.4 16.27 16.27 0 00-.1 2.4v6.3a6.62 6.62 0 00.1 1.5l.3 1.2h-3.8a5.27 5.27 0 00.3-1.2 3.42 3.42 0 00.2-1.5z" transform="translate(.1)"/><path d="M43.4 10.6a4.52 4.52 0 119 0 4.52 4.52 0 11-9 0z" transform="translate(.1)" fill="url(#radial-gradient)" fill-rule="evenodd"/><path class="cls-6" d="M28.3 12.1a1.1 1.1 0 111.1 1.1 1.11 1.11 0 01-1.1-1.1zM30 9.6l-.3-.6a2 2 0 00-1.8-.9 3.59 3.59 0 00-1.1.2 2.38 2.38 0 00-1.1.6l1-2.6c.5-.1.8-.1 1.1-.2h.8A4.7 4.7 0 0132 7.3a4.7 4.7 0 011.2 3.4 5.33 5.33 0 01-1.1 3.4 3.41 3.41 0 01-2.8 1.3 3.31 3.31 0 01-2.6-1.1 2.87 2.87 0 01-.9-2.3 3 3 0 012.7-2.9 2 2 0 011.5.5zM41 9a1.1 1.1 0 01-1 1.1 1.1 1.1 0 010-2.2A1.1 1.1 0 0141 9zm-1.8 2.5a3.33 3.33 0 00.3.6 2 2 0 001.8.9 3.59 3.59 0 001.1-.2 2.38 2.38 0 001.1-.6l-1 2.6a4.91 4.91 0 01-1.1.1h-.8a4.38 4.38 0 01-3.4-1.3 4.7 4.7 0 01-1.2-3.4 5.33 5.33 0 011.1-3.4 3.41 3.41 0 012.8-1.3 3.31 3.31 0 012.6 1.1 2.7 2.7 0 01.8 2.3 3 3 0 01-2.7 2.9c.2.3-.8.2-1.4-.3z" transform="translate(.1)"/><path class="cls-8" d="M52.6 13.1l.7-.4a1.7 1.7 0 00.6 1 2.1 2.1 0 001.1.4 1.66 1.66 0 001.2-.5 2 2 0 00.4-1.4 2 2 0 00-.3-1.1 3.85 3.85 0 00-1.3-1 6.68 6.68 0 01-1.7-1.3 2 2 0 01-.4-1.3 2 2 0 01.6-1.5 2.11 2.11 0 011.6-.6 2 2 0 011.1.3 3 3 0 01.8.8l-.6.4c-.1-.3-.3-.4-.5-.6a1.88 1.88 0 00-.8-.2 1.28 1.28 0 00-1 .4 1.78 1.78 0 00-.4 1c0 .6.5 1.2 1.5 1.7.2.1.3.2.4.2a3.46 3.46 0 011.4 1.2 3.26 3.26 0 01.4 1.4 2.49 2.49 0 01-.7 1.9 2.14 2.14 0 01-1.8.7 2.12 2.12 0 01-1.4-.4c-.3 0-.6-.5-.9-1.1z" transform="translate(.1)"/><path class="cls-8" d="M58.2 14.6V5.7h4.1v.8h-3.4v2.8h3.4v.7h-3.4v3.9h3.4v.7h-4.1z"/><path class="cls-8" d="M63.8 6.4v3.3h.8a2.08 2.08 0 001.5-.4c.3-.2.4-.6.4-1.2a1.7 1.7 0 00-.4-1.3 2.08 2.08 0 00-1.5-.4zm4.3 8.2h-.9l-2.9-4.2h-.4v4.2h-.8V5.7h1.5a2.81 2.81 0 012 .6 2.48 2.48 0 01.7 1.8 2.06 2.06 0 01-2.2 2.2c0 .1 3 4.3 3 4.3z" transform="translate(.1)"/><path class="cls-8" d="M70.6 15l-3.3-9.3h.9l2.4 7.3 2.5-7.3h.9L70.6 15zm4.3-.4V5.7h.8v8.9h-.8z"/><path class="cls-8" d="M83.3 7.4a2.58 2.58 0 00-1.3-.8 3.19 3.19 0 00-1.4-.3A3.31 3.31 0 0078 7.4a4 4 0 00-1 2.9 4.15 4.15 0 00.3 1.6 3.53 3.53 0 00.8 1.3 2.55 2.55 0 001.2.8 3.19 3.19 0 001.4.3 3.53 3.53 0 001.4-.3 4.58 4.58 0 001.3-.8v.9a3.1 3.1 0 01-1.3.6 6.75 6.75 0 01-1.4.2 4.67 4.67 0 01-1.7-.3 3.59 3.59 0 01-1.4-1 3.77 3.77 0 01-.9-1.5 5.82 5.82 0 01-.3-1.9 5.82 5.82 0 01.3-1.9 3.77 3.77 0 01.9-1.5 7.1 7.1 0 011.4-1 5.26 5.26 0 011.7-.4 7.72 7.72 0 011.5.2 3.46 3.46 0 011.2.7l-.1 1.1zm-4 9.6v-.4c.4.1.7.1.8.2h.5a4.33 4.33 0 00.5-.1.5.5 0 000-.8.73.73 0 00-.6-.2h-.2v-1h.4v.6h.1a2 2 0 01.9.2.91.91 0 01.3.7 1.14 1.14 0 01-.3.8 1.22 1.22 0 01-.9.3 1.27 1.27 0 01-.6-.1 5.07 5.07 0 00-.9-.2z" transform="translate(.1)"/><path class="cls-8" d="M87.5 14.2a3.19 3.19 0 001.4-.3 4.7 4.7 0 001.2-.9 3.53 3.53 0 00.8-1.3 3.9 3.9 0 000-3 3.53 3.53 0 00-.8-1.3 2.73 2.73 0 00-1.2-.9 3.42 3.42 0 00-2.8 0 4.7 4.7 0 00-1.2.9 3.53 3.53 0 00-.8 1.3 3.9 3.9 0 000 3 3.53 3.53 0 00.8 1.3 3.45 3.45 0 001.2.9 3.19 3.19 0 001.4.3zm4.4-4a5.66 5.66 0 01-.3 1.8 4 4 0 01-1 1.5 4 4 0 01-1.5 1 4.71 4.71 0 01-1.7.4 3.29 3.29 0 01-1.7-.4 4.51 4.51 0 01-1.4-1 4 4 0 01-1-1.5 5.55 5.55 0 010-3.6 3.07 3.07 0 011-1.5 4.51 4.51 0 011.4-1 4.67 4.67 0 011.7-.3 3.29 3.29 0 011.7.4 4.51 4.51 0 011.4 1 6.53 6.53 0 011 1.5 4.71 4.71 0 01.4 1.7zm.1 2.9l.7-.4a1.7 1.7 0 00.6 1 2.1 2.1 0 001.1.4 1.66 1.66 0 001.2-.5 2 2 0 00.4-1.4 2 2 0 00-.3-1.1 3.85 3.85 0 00-1.3-1 6.68 6.68 0 01-1.7-1.3 1.6 1.6 0 01-.4-1.1 2 2 0 01.6-1.5 2.11 2.11 0 011.6-.6 2 2 0 011.1.3 3 3 0 01.8.8l-.6.4c-.1-.3-.3-.4-.5-.6a1.88 1.88 0 00-.8-.2 1.37 1.37 0 00-1.4 1.4c0 .6.5 1.2 1.5 1.7.2.1.3.2.4.2a3.46 3.46 0 011.4 1.2 3.26 3.26 0 01.4 1.4 2.49 2.49 0 01-.7 1.9 2.14 2.14 0 01-1.8.7 2.3 2.3 0 01-1.4-.4 2.18 2.18 0 01-.9-1.3zm-80.5 2c-.6-5.3-7.1-9.9-9.9-10.9L4.3 0c1.6.4 6.9 3.3 8.1 11.4 1.4-9.7 8-11.4 8-11.4l2.7 4.2a17.69 17.69 0 00-9.8 10.9c-.3.6-.6.6-.9.6s-.7-.1-.9-.6z" transform="translate(.1)"/></g></g></svg>,2.08,0,0,0,1.5-.4c.3-.2.4-.6.4-1.2a1.7,1.7,0,0,0-.4-1.3,2.08,2.08,0,0,0-1.5-.4Zm4.3,8.2h-.9l-2.9-4.2h-.4v4.2h-.8V5.7h1.5a2.81,2.81,0,0,1,2,.6,2.48,2.48,0,0,1,.7,1.8,2.06,2.06,0,0,1-2.2,2.2C65.1,10.4,68.1,14.6,68.1,14.6Z" transform="translate(0.1)"/><polygon class="cls-8" points="70.6 15 67.3 5.7 68.2 5.7 70.6 13 73.1 5.7 74 5.7 70.6 15"/><polygon class="cls-8" points="74.9 14.6 74.9 5.7 75.7 5.7 75.7 14.6 74.9 14.6"/><path class="cls-8" d="M83.3,7.4A2.58,2.58,0,0,0,82,6.6a3.19,3.19,0,0,0-1.4-.3A3.31,3.31,0,0,0,78,7.4a4,4,0,0,0-1,2.9,4.15,4.15,0,0,0,.3,1.6,3.53,3.53,0,0,0,.8,1.3,2.55,2.55,0,0,0,1.2.8,3.19,3.19,0,0,0,1.4.3,3.53,3.53,0,0,0,1.4-.3,4.58,4.58,0,0,0,1.3-.8v.9a3.1,3.1,0,0,1-1.3.6,6.75,6.75,0,0,1-1.4.2,4.67,4.67,0,0,1-1.7-.3,3.59,3.59,0,0,1-1.4-1,3.77,3.77,0,0,1-.9-1.5,5.82,5.82,0,0,1-.3-1.9,5.82,5.82,0,0,1,.3-1.9,3.77,3.77,0,0,1,.9-1.5,7.1,7.1,0,0,1,1.4-1,5.26,5.26,0,0,1,1.7-.4,7.72,7.72,0,0,1,1.5.2,3.46,3.46,0,0,1,1.2.7l-.1,1.1Zm-4,9.6v-.4c.4.1.7.1.8.2h.5a4.33,4.33,0,0,0,.5-.1.5.5,0,0,0,0-.8.73.73,0,0,0-.6-.2h-.2v-1h.4v.6h.1a2,2,0,0,1,.9.2.91.91,0,0,1,.3.7,1.14,1.14,0,0,1-.3.8,1.22,1.22,0,0,1-.9.3,1.27,1.27,0,0,1-.6-.1A5.07,5.07,0,0,0,79.3,17Z" transform="translate(0.1)"/><path class="cls-8" d="M87.5,14.2a3.19,3.19,0,0,0,1.4-.3,4.7,4.7,0,0,0,1.2-.9,3.53,3.53,0,0,0,.8-1.3,3.9,3.9,0,0,0,0-3,3.53,3.53,0,0,0-.8-1.3,2.73,2.73,0,0,0-1.2-.9,3.42,3.42,0,0,0-2.8,0,4.7,4.7,0,0,0-1.2.9,3.53,3.53,0,0,0-.8,1.3,3.9,3.9,0,0,0,0,3,3.53,3.53,0,0,0,.8,1.3,3.45,3.45,0,0,0,1.2.9A3.19,3.19,0,0,0,87.5,14.2Zm4.4-4a5.66,5.66,0,0,1-.3,1.8,4,4,0,0,1-1,1.5,4,4,0,0,1-1.5,1,4.71,4.71,0,0,1-1.7.4,3.29,3.29,0,0,1-1.7-.4,4.51,4.51,0,0,1-1.4-1,4,4,0,0,1-1-1.5,5.55,5.55,0,0,1,0-3.6,3.07,3.07,0,0,1,1-1.5,4.51,4.51,0,0,1,1.4-1,4.67,4.67,0,0,1,1.7-.3,3.29,3.29,0,0,1,1.7.4,4.51,4.51,0,0,1,1.4,1,6.53,6.53,0,0,1,1,1.5A4.71,4.71,0,0,1,91.9,10.2Z" transform="translate(0.1)"/><path class="cls-8" d="M92,13.1l.7-.4a1.7,1.7,0,0,0,.6,1,2.1,2.1,0,0,0,1.1.4,1.66,1.66,0,0,0,1.2-.5,2,2,0,0,0,.4-1.4,2,2,0,0,0-.3-1.1,3.85,3.85,0,0,0-1.3-1,6.68,6.68,0,0,1-1.7-1.3,1.6,1.6,0,0,1-.4-1.1,2,2,0,0,1,.6-1.5,2.11,2.11,0,0,1,1.6-.6,2,2,0,0,1,1.1.3,3,3,0,0,1,.8.8l-.6.4c-.1-.3-.3-.4-.5-.6a1.88,1.88,0,0,0-.8-.2,1.37,1.37,0,0,0-1.4,1.4c0,.6.5,1.2,1.5,1.7.2.1.3.2.4.2a3.46,3.46,0,0,1,1.4,1.2,3.26,3.26,0,0,1,.4,1.4,2.49,2.49,0,0,1-.7,1.9,2.14,2.14,0,0,1-1.8.7,2.3,2.3,0,0,1-1.4-.4A2.18,2.18,0,0,1,92,13.1Z" transform="translate(0.1)"/><path class="cls-8" d="M11.5,15.1C10.9,9.8,4.4,5.2,1.6,4.2L4.3,0c1.6.4,6.9,3.3,8.1,11.4,1.4-9.7,8-11.4,8-11.4l2.7,4.2a17.69,17.69,0,0,0-9.8,10.9c-.3.6-.6.6-.9.6S11.7,15.6,11.5,15.1Z" transform="translate(0.1)"/></g></g></svg>